<svg xmlns="http://www.w3.org/2000/svg" viewBox="0 0 64 64" role="img" aria-label="怪话怪">
  <defs>
    <linearGradient id="paper" x1="32" y1="8" x2="32" y2="56" gradientUnits="userSpaceOnUse">
      <stop offset="0" stop-color="#fffdf8"/>
      <stop offset="1" stop-color="#f5f1e8"/>
    </linearGradient>
  </defs>
  <rect width="64" height="64" rx="14" fill="#1b1a15"/>
  <rect x="8" y="8" width="48" height="48" rx="8" fill="url(#paper)"/>
  <!-- terminal status strip -->
  <path d="M16 8h32a8 8 0 0 1 8 8v0H8v0a8 8 0 0 1 8-8z" fill="#1b1a15"/>
  <rect x="8" y="12" width="48" height="4.5" fill="#1b1a15"/>
  <circle cx="14.5" cy="14" r="1.55" fill="#ff4d00"/>
  <circle cx="19.4" cy="14" r="1.3" fill="#786f64"/>
  <circle cx="24" cy="14" r="1.3" fill="#5a564e"/>
  <!-- 怪 -->
  <text x="27.5" y="45.5" text-anchor="middle"
        font-family="STSong, Songti SC, 'Noto Serif SC', SimSun, serif"
        font-size="28" font-weight="700" fill="#1b1a15">怪</text>
  <!-- brand cursor -->
  <rect x="43.5" y="27" width="5" height="18" rx="1.2" fill="#ff4d00"/>
  <g stroke="#1b1a15" stroke-opacity="0.16" stroke-width="1.5" stroke-linecap="round">
    <path d="M50.5 30.5h5"/>
    <path d="M50.5 36h4"/>
    <path d="M50.5 41.5h5"/>
  </g>
</svg>
